<svg width="32" height="33" viewBox="0 0 32 33" fill="none" xmlns="http://www.w3.org/2000/svg">
<path fill-rule="evenodd" clip-rule="evenodd" d="M5.43927 13.1274H5.5H6.5H25.5H26.5H26.5607C27.2024 13.1274 27.746 12.7074 27.9317 12.1274H4.06827C4.25397 12.7074 4.79758 13.1274 5.43927 13.1274ZM4.11369 11.1274C4.25078 10.8034 4.50471 10.5342 4.83613 10.3813L14.7428 5.80896C15.5405 5.4408 16.4595 5.4408 17.2572 5.80896L27.1639 10.3813C27.4953 10.5342 27.7492 10.8034 27.8863 11.1274H4.11369ZM5.43927 14.1274H5.5V24.1274V24.1904C4.63739 24.4124 4 25.1954 4 26.1274C4 27.2319 4.89543 28.1274 6 28.1274H26C27.1046 28.1274 28 27.2319 28 26.1274C28 25.1954 27.3626 24.4124 26.5 24.1904V24.1274V14.1274H26.5607C27.9079 14.1274 29 13.0353 29 11.6881C29 10.7366 28.4468 9.87203 27.5829 9.47332L17.6762 4.901C16.6127 4.41012 15.3873 4.41012 14.3238 4.901L4.41708 9.47332C3.55321 9.87203 3 10.7366 3 11.6881C3 13.0353 4.0921 14.1274 5.43927 14.1274ZM26 25.1274H25.5H6.5H6C5.44772 25.1274 5 25.5751 5 26.1274C5 26.6796 5.44772 27.1274 6 27.1274H26C26.5523 27.1274 27 26.6796 27 26.1274C27 25.5751 26.5523 25.1274 26 25.1274ZM25.5 24.1274V14.1274H6.5V24.1274H25.5ZM9 16.6274C9 15.7989 9.67157 15.1274 10.5 15.1274C11.3284 15.1274 12 15.7989 12 16.6274V21.6274C12 22.4558 11.3284 23.1274 10.5 23.1274C9.67157 23.1274 9 22.4558 9 21.6274V16.6274ZM10.5 16.1274C10.2239 16.1274 10 16.3512 10 16.6274V21.6274C10 21.9035 10.2239 22.1274 10.5 22.1274C10.7761 22.1274 11 21.9035 11 21.6274V16.6274C11 16.3512 10.7761 16.1274 10.5 16.1274ZM14.5 16.6274C14.5 15.7989 15.1716 15.1274 16 15.1274C16.8284 15.1274 17.5 15.7989 17.5 16.6274V21.6274C17.5 22.4558 16.8284 23.1274 16 23.1274C15.1716 23.1274 14.5 22.4558 14.5 21.6274V16.6274ZM16 16.1274C15.7239 16.1274 15.5 16.3512 15.5 16.6274V21.6274C15.5 21.9035 15.7239 22.1274 16 22.1274C16.2761 22.1274 16.5 21.9035 16.5 21.6274V16.6274C16.5 16.3512 16.2761 16.1274 16 16.1274ZM20 16.6274C20 15.7989 20.6716 15.1274 21.5 15.1274C22.3284 15.1274 23 15.7989 23 16.6274V21.6274C23 22.4558 22.3284 23.1274 21.5 23.1274C20.6716 23.1274 20 22.4558 20 21.6274V16.6274ZM21.5 16.1274C21.2239 16.1274 21 16.3512 21 16.6274V21.6274C21 21.9035 21.2239 22.1274 21.5 22.1274C21.7761 22.1274 22 21.9035 22 21.6274V16.6274C22 16.3512 21.7761 16.1274 21.5 16.1274Z" fill="#232323"/>
</svg>
