<svg width="32" height="33" viewBox="0 0 32 33" fill="none" xmlns="http://www.w3.org/2000/svg">
<path fill-rule="evenodd" clip-rule="evenodd" d="M26 9.12738H6C4.34315 9.12738 3 10.4705 3 12.1274L29 12.1274C29 10.4705 27.6569 9.12738 26 9.12738ZM3 14.1274V13.1274H4H28H29V14.1274V15.1274V16.1274H28H4H3V15.1274V14.1274ZM3 17.1274H29V22.1274C29 23.7842 27.6569 25.1274 26 25.1274H6C4.34315 25.1274 3 23.7842 3 22.1274V17.1274ZM2 16.1274V17.1274V22.1274C2 24.3365 3.79086 26.1274 6 26.1274H26C28.2091 26.1274 30 24.3365 30 22.1274V17.1274V16.1274V13.1274V12.1274C30 9.91824 28.2091 8.12738 26 8.12738H6C3.79086 8.12738 2 9.91824 2 12.1274V13.1274V16.1274ZM8 21.1274C8 21.6797 7.55228 22.1274 7 22.1274C6.44772 22.1274 6 21.6797 6 21.1274C6 20.5751 6.44772 20.1274 7 20.1274C7.55228 20.1274 8 20.5751 8 21.1274ZM9 21.1274C9 22.2319 8.10457 23.1274 7 23.1274C5.89543 23.1274 5 22.2319 5 21.1274C5 20.0228 5.89543 19.1274 7 19.1274C8.10457 19.1274 9 20.0228 9 21.1274Z" fill="#232323"/>
</svg>
