<svg width="21" height="21" viewBox="0 0 21 21" fill="none" xmlns="http://www.w3.org/2000/svg">
<mask id="path-1-inside-1_10_1420" fill="white">
<path fill-rule="evenodd" clip-rule="evenodd" d="M4.58654 4.06974C3.74259 3.7181 2.8125 4.33816 2.8125 5.25243V6.83406C2.8125 7.34876 3.1205 7.8135 3.59452 8.01405L10.0321 10.7377C10.3407 10.8682 10.6881 10.8727 10.9999 10.7502L17.3747 8.24577C17.8651 8.05315 18.1875 7.58004 18.1875 7.05324V5.25243C18.1875 4.33816 17.2574 3.7181 16.4135 4.06974L10.9928 6.32835C10.6774 6.45976 10.3226 6.45976 10.0072 6.32835L4.58654 4.06974ZM18.1875 11.8713C18.1875 10.9682 17.2783 10.3485 16.4378 10.6787L10.8514 12.8734C10.6175 12.9653 10.357 12.9619 10.1256 12.864L4.59297 10.5233C3.7482 10.1659 2.8125 10.786 2.8125 11.7033V13.2519C2.8125 13.7626 3.11575 14.2245 3.58432 14.4275L9.99057 17.2036C10.3156 17.3444 10.6844 17.3444 11.0094 17.2036L17.4157 14.4275C17.8842 14.2245 18.1875 13.7626 18.1875 13.2519V11.8713Z"/>
</mask>
<path d="M4.58654 4.06974L4.20192 4.99282H4.20192L4.58654 4.06974ZM16.4135 4.06974L16.7981 4.99282L16.4135 4.06974ZM10.9928 6.32835L11.3774 7.25143L10.9928 6.32835ZM10.0072 6.32835L10.3918 5.40528L10.0072 6.32835ZM3.58432 14.4275L3.98192 13.51H3.98192L3.58432 14.4275ZM9.99057 17.2036L10.3882 16.286H10.3882L9.99057 17.2036ZM11.0094 17.2036L11.407 18.1211H11.407L11.0094 17.2036ZM17.4157 14.4275L17.8133 15.3451V15.3451L17.4157 14.4275ZM16.4378 10.6787L16.8034 11.6095L16.4378 10.6787ZM10.9999 10.7502L11.3655 11.6809L10.9999 10.7502ZM3.8125 5.25243C3.8125 5.05174 4.01666 4.91562 4.20192 4.99282L4.97115 3.14666C3.46852 2.52057 1.8125 3.62458 1.8125 5.25243H3.8125ZM3.8125 6.83406V5.25243H1.8125V6.83406H3.8125ZM3.20488 8.93501L9.6425 11.6586L10.4218 9.81668L3.98416 7.09308L3.20488 8.93501ZM11.3655 11.6809L17.7404 9.17652L17.0091 7.31502L10.6342 9.81944L11.3655 11.6809ZM17.1875 5.25243V7.05324H19.1875V5.25243H17.1875ZM16.7981 4.99282C16.9833 4.91563 17.1875 5.05174 17.1875 5.25243H19.1875C19.1875 3.62458 17.5315 2.52057 16.0288 3.14666L16.7981 4.99282ZM11.3774 7.25143L16.7981 4.99282L16.0288 3.14666L10.6082 5.40528L11.3774 7.25143ZM9.6226 7.25143C10.1841 7.4854 10.8159 7.4854 11.3774 7.25143L10.6082 5.40528C10.5389 5.43412 10.4611 5.43412 10.3918 5.40528L9.6226 7.25143ZM4.20192 4.99282L9.6226 7.25143L10.3918 5.40528L4.97115 3.14666L4.20192 4.99282ZM16.0721 9.74798L10.4857 11.9426L11.217 13.8041L16.8034 11.6095L16.0721 9.74798ZM10.5152 11.943L4.98261 9.6023L4.20333 11.4442L9.73594 13.785L10.5152 11.943ZM3.8125 13.2519V11.7033H1.8125V13.2519H3.8125ZM3.98192 13.51C3.87907 13.4654 3.8125 13.364 3.8125 13.2519H1.8125C1.8125 14.1611 2.35243 14.9835 3.18671 15.3451L3.98192 13.51ZM10.3882 16.286L3.98192 13.51L3.18671 15.3451L9.59296 18.1211L10.3882 16.286ZM10.6118 16.286C10.5405 16.3169 10.4595 16.3169 10.3882 16.286L9.59296 18.1211C10.1717 18.3719 10.8283 18.3719 11.407 18.1211L10.6118 16.286ZM17.0181 13.51L10.6118 16.286L11.407 18.1211L17.8133 15.3451L17.0181 13.51ZM17.1875 13.2519C17.1875 13.364 17.1209 13.4654 17.0181 13.51L17.8133 15.3451C18.6476 14.9835 19.1875 14.1611 19.1875 13.2519H17.1875ZM17.1875 11.8713V13.2519H19.1875V11.8713H17.1875ZM10.4857 11.9426C10.4952 11.9389 10.5058 11.939 10.5152 11.943L9.73594 13.785C10.2081 13.9847 10.7398 13.9916 11.217 13.8041L10.4857 11.9426ZM16.8034 11.6095C16.9879 11.537 17.1875 11.673 17.1875 11.8713H19.1875C19.1875 10.2634 17.5687 9.16005 16.0721 9.74798L16.8034 11.6095ZM17.7404 9.17652C18.6134 8.83356 19.1875 7.9912 19.1875 7.05324H17.1875C17.1875 7.16888 17.1167 7.27274 17.0091 7.31502L17.7404 9.17652ZM9.6425 11.6586C10.1918 11.891 10.8103 11.899 11.3655 11.6809L10.6342 9.81944C10.5658 9.84633 10.4895 9.84534 10.4218 9.81668L9.6425 11.6586ZM4.98261 9.6023C3.4785 8.96595 1.8125 10.0701 1.8125 11.7033H3.8125C3.8125 11.5019 4.0179 11.3658 4.20333 11.4442L4.98261 9.6023ZM1.8125 6.83406C1.8125 7.75048 2.36089 8.57794 3.20488 8.93501L3.98416 7.09308C3.88011 7.04906 3.8125 6.94704 3.8125 6.83406H1.8125Z" fill="#232323" mask="url(#path-1-inside-1_10_1420)"/>
</svg>
