<svg width="49" height="49" viewBox="0 0 49 49" fill="none" xmlns="http://www.w3.org/2000/svg">
<rect x="0.5" y="0.127441" width="48" height="48" rx="24" fill="url(#paint0_linear_10_1897)"/>
<path fill-rule="evenodd" clip-rule="evenodd" d="M24.5 10.1912C22.6109 10.1912 21.1124 11.7832 21.2267 13.6689L22.0368 27.0351C22.1157 28.3376 23.1951 29.3536 24.5 29.3536C25.8049 29.3536 26.8843 28.3376 26.9632 27.0351L27.7733 13.6689C27.8876 11.7832 26.3891 10.1912 24.5 10.1912ZM24.5 38.0638C25.9432 38.0638 27.1131 36.8939 27.1131 35.4507C27.1131 34.0076 25.9432 32.8377 24.5 32.8377C23.0569 32.8377 21.887 34.0076 21.887 35.4507C21.887 36.8939 23.0569 38.0638 24.5 38.0638Z" fill="white"/>
<defs>
<linearGradient id="paint0_linear_10_1897" x1="32.5" y1="48.1274" x2="13.4186" y2="-3.18884" gradientUnits="userSpaceOnUse">
<stop stop-color="#FF7D7D"/>
<stop offset="1" stop-color="#FF2F2F"/>
</linearGradient>
</defs>
</svg>
