<svg width="51" height="50" viewBox="0 0 51 50" fill="none" xmlns="http://www.w3.org/2000/svg">
<rect x="1" y="0.5" width="49" height="49" rx="24.5" fill="#4C6075"/>
<path fill-rule="evenodd" clip-rule="evenodd" d="M36.5 25C36.5 31.0751 31.5751 36 25.5 36C19.4249 36 14.5 31.0751 14.5 25C14.5 18.9249 19.4249 14 25.5 14C31.5751 14 36.5 18.9249 36.5 25ZM26.7251 19.0416C26.7251 19.801 26.1094 20.4166 25.3501 20.4166C24.5907 20.4166 23.9751 19.801 23.9751 19.0416C23.9751 18.2822 24.5907 17.6666 25.3501 17.6666C26.1094 17.6666 26.7251 18.2822 26.7251 19.0416ZM24.3542 22.25C23.7213 22.25 23.2083 22.763 23.2083 23.3958C23.2083 24.0287 23.7213 24.5417 24.3542 24.5417H24.7361L24.7361 29.125H24.3542C23.7214 29.125 23.2084 29.638 23.2084 30.2708C23.2084 30.9037 23.7214 31.4167 24.3542 31.4167H25.8819H27.4097C28.0426 31.4167 28.5556 30.9037 28.5556 30.2708C28.5556 29.638 28.0426 29.125 27.4097 29.125H27.0278V23.4021L27.0278 23.3958C27.0278 22.763 26.5148 22.25 25.8819 22.25H25.8819H24.3542Z" fill="white"/>
<rect x="1" y="0.5" width="49" height="49" rx="24.5" stroke="white"/>
</svg>
