<svg width="32" height="33" viewBox="0 0 32 33" fill="none" xmlns="http://www.w3.org/2000/svg">
<path fill-rule="evenodd" clip-rule="evenodd" d="M3 9.12738V9.5035V16.1274V17.1274V18.4072C3 20.6153 4.44834 22.5619 6.56326 23.1964L17.8506 26.5826C19.4291 27.0561 21.0138 26.5114 22 25.3985V25.4107C23.9362 25.169 25.4909 23.5205 25.5 21.4585C26.9945 20.594 28 18.9781 28 17.1274V9.12738C28 6.36596 25.7614 4.12738 23 4.12738H8C6.23975 4.12738 4.69196 5.03699 3.801 6.4118C3.30009 7.07667 3 7.90578 3 8.81443V9.12738ZM6.85061 22.2385C5.15867 21.731 4 20.1737 4 18.4072V17.1274V16.1274V16.1274V9.5035C4 7.49392 5.93721 6.05257 7.86204 6.63002L19.1494 10.0162C20.8413 10.5238 22 12.0811 22 13.8475V22.7513C22 24.7608 20.0628 26.2022 18.138 25.6247L6.85061 22.2385ZM24.5 21.4403C24.5 22.6686 23.7688 23.7032 22.7424 24.1719C22.9083 23.7339 23 23.256 23 22.7513V13.8475C23 11.6395 21.5517 9.69288 19.4367 9.0584L10.1903 6.28447L21.1288 8.02558C23.0707 8.33469 24.5 10.0094 24.5 11.9759V21.4403ZM25.5 20.2501C26.4145 19.517 27 18.3906 27 17.1274V9.12738C27 6.91824 25.2091 5.12738 23 5.12738H9.28247L21.286 7.03802C23.7134 7.4244 25.5 9.51785 25.5 11.9759V20.2501ZM20 18.1274C20 18.6797 19.5523 19.1274 19 19.1274C18.4477 19.1274 18 18.6797 18 18.1274C18 17.5751 18.4477 17.1274 19 17.1274C19.5523 17.1274 20 17.5751 20 18.1274ZM21 18.1274C21 19.2319 20.1046 20.1274 19 20.1274C17.8954 20.1274 17 19.2319 17 18.1274C17 17.0228 17.8954 16.1274 19 16.1274C20.1046 16.1274 21 17.0228 21 18.1274Z" fill="#232323"/>
</svg>
